inDegrees=no
num_controls=7
num_derivatives=13
num_iterations=117
num_multipliers=7
num_parameters=0
num_slacks=7
num_states=26
objective=0.442729
objective_accelerations=0.059631
objective_balance=0.003737
objective_effort=0.024154
objective_height=0.349838
objective_ligament=0.005369
solver_duration=1773.568169
status=Solve_Succeeded
success=true
DataType=double
version=3
OpenSimVersion=4.5
endheader
time	/jointset/ground_pelvis/pelvis_tilt/value	/jointset/ground_pelvis/pelvis_tx/value	/jointset/ground_pelvis/pelvis_ty/value	/jointset/hip_l/hip_flexion_l/value	/jointset/hip_l/hip_adduction_l/value	/jointset/hip_l/hip_rotation_l/value	/jointset/back/lumbar_extension/value	/jointset/patellofemoral_l/patellar_flexion_l/value	/jointset/knee_l/knee_flexion_l/value	/jointset/knee_l/knee_adduction_l/value	/jointset/knee_l/knee_rotation_l/value	/jointset/ankle_l/ankle_angle_l/value	/jointset/subtalar_l/subtalar_angle_l/value	/jointset/ground_pelvis/pelvis_tilt/speed	/jointset/ground_pelvis/pelvis_tx/speed	/jointset/ground_pelvis/pelvis_ty/speed	/jointset/hip_l/hip_flexion_l/speed	/jointset/hip_l/hip_adduction_l/speed	/jointset/hip_l/hip_rotation_l/speed	/jointset/back/lumbar_extension/speed	/jointset/patellofemoral_l/patellar_flexion_l/speed	/jointset/knee_l/knee_flexion_l/speed	/jointset/knee_l/knee_adduction_l/speed	/jointset/knee_l/knee_rotation_l/speed	/jointset/ankle_l/ankle_angle_l/speed	/jointset/subtalar_l/subtalar_angle_l/speed	/forceset/tau_hip_flexion_l	/forceset/tau_hip_adduction_l	/forceset/tau_hip_rotation_l	/forceset/tau_knee_flexion_l	/forceset/tau_ankle_angle_l	/forceset/tau_subtalar_angle_l	/forceset/tau_lumbar_extension	lambda_cid13_p0	lambda_cid13_p1	lambda_cid13_p2	lambda_cid13_p3	lambda_cid13_p4	lambda_cid13_p5	lambda_cid14_p0	/jointset/ground_pelvis/pelvis_tilt/accel	/jointset/ground_pelvis/pelvis_tx/accel	/jointset/ground_pelvis/pelvis_ty/accel	/jointset/hip_l/hip_flexion_l/accel	/jointset/hip_l/hip_adduction_l/accel	/jointset/hip_l/hip_rotation_l/accel	/jointset/back/lumbar_extension/accel	/jointset/patellofemoral_l/patellar_flexion_l/accel	/jointset/knee_l/knee_flexion_l/accel	/jointset/knee_l/knee_adduction_l/accel	/jointset/knee_l/knee_rotation_l/accel	/jointset/ankle_l/ankle_angle_l/accel	/jointset/subtalar_l/subtalar_angle_l/accel	gamma_cid13_p0	gamma_cid13_p1	gamma_cid13_p2	gamma_cid13_p3	gamma_cid13_p4	gamma_cid13_p5	gamma_cid14_p0
1	-0.5768541819686245	-0.09093376042022339	0.5557526035177706	1.914283981308979	-0.4649163554779059	0.02287418674315185	-0.2617931881143357	1.418101817650908	1.418101817650909	-0.07261561539118488	-0.174529369241451	0.2069010570216196	-0.01474967779714806	-0.01614726029484771	0.01107779658160768	0.003473218929430308	-0.004994956006123341	-0.002578037579470571	0.003967198201291875	-1.783770134692749e-05	0.0009920937040201914	0.0009920937040202344	-0.006226361060386367	-3.540286599702609e-05	0.02197172412420758	0.00939482619754225	-0.3515918983534985	0.009614348422835728	0.0008453724915986002	-0.3003670221135085	0.04316164258447359	0.02987903614764113	0.2963631583064951	-26.42459188227675	-8.75186084951762	1.5187207722858	8.169956854655407	-647.6477472404396	-44.39012232846238	-0.8064727560635307	1.572060888144349	0.2292079403258756	2.063879707112096	-7.102190448505471	-0.1162793331656922	-2.357753651368441	-0.02241093383511303	-5.398381325688746	-5.39838132568881	-0.6538452124460793	-0.02698253536573707	-0.5575958241098101	-0.4335254974990432	4.893210547374236e-09	1.846287713747595e-08	-1.41717412539164e-08	2.050889010518084e-09	-1.999852950259874e-09	2.549665076407698e-08	2.20275343128599e-09
1.01	-0.5769380199457751	-0.09081157141797086	0.5558903715963518	1.913880249645505	-0.4649469176581412	0.02279488426543076	-0.2617934310886659	1.417841944326866	1.417841944326868	-0.07270790168160579	-0.1745297170192508	0.2070930533400441	-0.01467599258080464	-0.0006188899823880872	0.01336362089947908	0.02407516768414281	-0.0757407755992668	-0.003534953953391326	-0.01982790418421686	-3.010230238201604e-05	-0.05296074629921738	-0.05296074629921748	-0.01223119784057018	-4.08705056306316e-05	0.01642109203162626	0.005337477641936242	-0.3514522730722274	0.009698163851712897	0.0008315339576650968	-0.3002315387246569	0.0430474347035549	0.02990090470055984	0.2962644291100908	-26.44597828848427	-8.762366942457309	1.525824947879615	8.081466497290709	-647.4748670242421	-44.40788822736925	-0.8104971483756747	1.543440363713562	0.2288124037745055	2.057565536192955	-7.059189305672676	-0.08548080697919135	-2.39042673230806	0.009464006120376039	-5.392831206346202	-5.392831206346177	-0.5738526445139798	0.01167097615789492	-0.5547638494469589	-0.3925542927322173	-4.384997326088914e-09	6.662303457175079e-09	2.377611011146849e-08	8.703813582669506e-10	-1.268238604225639e-08	8.391234408789586e-08	-1.135969633097253e-08
1.02	-0.5768665311676181	-0.09066641562728826	0.5562340017777887	1.91276937746791	-0.4649870656056101	0.02247762312382167	-0.2617937770631307	1.417042723429051	1.417042723429053	-0.07286024628657103	-0.1745303195025236	0.2072293499480199	-0.01464302380164545	0.01491809076674372	0.01567115426762167	0.04464563950054114	-0.1464230588305658	-0.004495191026268879	-0.04362453457636406	-3.843772909340162e-05	-0.106877421050653	-0.1068774210506528	-0.01823802396913173	-8.634396846099567e-05	0.01083178203445802	0.001251538760697033	-0.3513126477909396	0.009781979280592889	0.0008176954237224729	-0.3000960553358072	0.04293322682263404	0.02992277325348101	0.2961656999137043	-26.47257755829899	-8.771762116458126	1.532525765823254	8.01346055802021	-647.3757696423276	-44.40272188900866	-0.8224424702767477	1.57378297547879	0.2335497503801066	2.057584319449263	-7.08948317613658	-0.1169434729570219	-2.358059252696107	-0.02162509897034625	-5.391148275328358	-5.391148275328345	-0.6542430821216156	-0.0349837000050339	-0.5653314050272057	-0.4392435626256513	-1.217855716747477e-08	-1.374474050617483e-09	6.340452646619263e-08	1.123376730723848e-09	-2.244091960890356e-08	1.38528110347803e-07	-2.341188127807796e-08
1.03	-0.5766395964103793	-0.09049803978042702	0.5567831013974421	1.910952170573401	-0.465036676689213	0.02192256302512242	-0.2617941881206773	1.415704602043659	1.415704602043658	-0.07307260465494324	-0.1745313969297695	0.2073094904589491	-0.0146508987544855	0.03047278585879547	0.0180111460612555	0.06516127705166316	-0.2169899675088747	-0.00541073583508019	-0.06736942564710094	-4.240580179798654e-05	-0.1607325507766768	-0.1607325507766759	-0.02422643872419625	-0.0001155422208721303	0.00518323146525831	-0.00281368954146906	-0.3508524243104848	0.009930649403196391	0.0007762437945899596	-0.2998596725908814	0.04292843156294474	0.03001827152498002	0.2958502185142113	-26.44394651003246	-8.831017965251345	1.55655667444024	7.859707772476801	-646.9825177032251	-44.47465489402426	-0.8425250057652377	1.546897609195206	0.2352938171516118	2.046595869082558	-7.036046384810758	-0.07642430271342018	-2.380016544216515	0.01042253545683029	-5.380542370918138	-5.380542370918031	-0.5700730699365838	0.01517942489780765	-0.5665803462318615	-0.3882471027678516	-1.995696753914554e-08	-9.372845475017082e-09	1.03050091443257e-07	1.39099968506553e-09	-3.219002460896552e-08	1.931051018417518e-07	-3.544865535972263e-08
